<svg width="168" height="48" viewBox="0 0 168 48" fill="none" xmlns="http://www.w3.org/2000/svg">
<rect width="168" height="48" fill="#F5F5F5"/>
<g clip-path="url(#clip0_0_1)">
<rect width="168" height="48" fill="white"/>
<line x1="6" y1="4" x2="6" y2="37" stroke="#071E3F" stroke-width="4"/>
<line x1="12" y1="4" x2="12" y2="41" stroke="#071E3F" stroke-width="4"/>
<path d="M18 4L18 45" stroke="#071E3F" stroke-width="4"/>
<path d="M24 4L24 45" stroke="#071E3F" stroke-width="4"/>
<path d="M36 4V45" stroke="#071E3F" stroke-width="4"/>
<path d="M30 4L30 45" stroke="#071E3F" stroke-width="4"/>
<line x1="4" y1="5" x2="11" y2="5" stroke="#071E3F" stroke-width="2"/>
<line x1="16" y1="5" x2="22" y2="5" stroke="#071E3F" stroke-width="2"/>
<line x1="28" y1="5" x2="34" y2="5" stroke="#071E3F" stroke-width="2"/>
<line x1="22" y1="44" x2="28" y2="44" stroke="#071E3F" stroke-width="2"/>
<line x1="4" y1="40" x2="14" y2="40" stroke="#071E3F" stroke-width="2"/>
<path d="M4 44H16" stroke="#071E3F" stroke-width="2"/>
<line x1="4.98541" y1="44.5544" x2="5.01464" y2="40.4314" stroke="#071E3F" stroke-width="2"/>
<path d="M45.7784 45H41.1378V31.9091H45.8168C47.1335 31.9091 48.267 32.1712 49.2173 32.6953C50.1676 33.2152 50.8984 33.9631 51.4098 34.9389C51.9254 35.9148 52.1832 37.0824 52.1832 38.4418C52.1832 39.8054 51.9254 40.9773 51.4098 41.9574C50.8984 42.9375 50.1634 43.6896 49.2045 44.2138C48.25 44.7379 47.108 45 45.7784 45ZM43.9055 42.6286H45.6634C46.4815 42.6286 47.1697 42.4837 47.728 42.1939C48.2905 41.8999 48.7124 41.446 48.9936 40.8324C49.2791 40.2145 49.4219 39.4176 49.4219 38.4418C49.4219 37.4744 49.2791 36.6839 48.9936 36.0703C48.7124 35.4567 48.2926 35.005 47.7344 34.7152C47.1761 34.4254 46.4879 34.2805 45.6697 34.2805H43.9055V42.6286ZM58.6568 45.1918C57.6468 45.1918 56.7775 44.9872 56.0488 44.5781C55.3244 44.1648 54.7662 43.581 54.3741 42.8267C53.9821 42.0682 53.786 41.1712 53.786 40.1357C53.786 39.1257 53.9821 38.2393 54.3741 37.4766C54.7662 36.7138 55.318 36.1193 56.0297 35.6932C56.7456 35.267 57.585 35.054 58.5481 35.054C59.1958 35.054 59.7988 35.1584 60.3571 35.3672C60.9196 35.5717 61.4096 35.8807 61.8272 36.294C62.2491 36.7074 62.5772 37.2273 62.8116 37.8537C63.046 38.4759 63.1632 39.2045 63.1632 40.0398V40.7876H54.8727V39.1001H60.6C60.6 38.7081 60.5147 38.3608 60.3443 38.0582C60.1738 37.7557 59.9373 37.5192 59.6348 37.3487C59.3365 37.174 58.9892 37.0866 58.5929 37.0866C58.1795 37.0866 57.813 37.1825 57.4934 37.3743C57.1781 37.5618 56.9309 37.8153 56.752 38.1349C56.573 38.4503 56.4814 38.8018 56.4771 39.1896V40.794C56.4771 41.2798 56.5666 41.6996 56.7456 42.0533C56.9288 42.407 57.1866 42.6797 57.519 42.8714C57.8514 43.0632 58.2456 43.1591 58.7015 43.1591C59.0041 43.1591 59.2811 43.1165 59.5325 43.0312C59.7839 42.946 59.9991 42.8182 60.1781 42.6477C60.3571 42.4773 60.4934 42.2685 60.5872 42.0213L63.1056 42.1875C62.9778 42.7926 62.7157 43.321 62.3194 43.7727C61.9274 44.2202 61.4203 44.5696 60.7981 44.821C60.1802 45.0682 59.4664 45.1918 58.6568 45.1918ZM69.4146 45.1918C68.4047 45.1918 67.5353 44.9872 66.8066 44.5781C66.0822 44.1648 65.524 43.581 65.1319 42.8267C64.7399 42.0682 64.5439 41.1712 64.5439 40.1357C64.5439 39.1257 64.7399 38.2393 65.1319 37.4766C65.524 36.7138 66.0758 36.1193 66.7875 35.6932C67.5034 35.267 68.3429 35.054 69.3059 35.054C69.9537 35.054 70.5566 35.1584 71.1149 35.3672C71.6774 35.5717 72.1674 35.8807 72.5851 36.294C73.0069 36.7074 73.3351 37.2273 73.5694 37.8537C73.8038 38.4759 73.921 39.2045 73.921 40.0398V40.7876H65.6305V39.1001H71.3578C71.3578 38.7081 71.2726 38.3608 71.1021 38.0582C70.9316 37.7557 70.6951 37.5192 70.3926 37.3487C70.0943 37.174 69.747 37.0866 69.3507 37.0866C68.9373 37.0866 68.5708 37.1825 68.2512 37.3743C67.9359 37.5618 67.6887 37.8153 67.5098 38.1349C67.3308 38.4503 67.2392 38.8018 67.2349 39.1896V40.794C67.2349 41.2798 67.3244 41.6996 67.5034 42.0533C67.6866 42.407 67.9444 42.6797 68.2768 42.8714C68.6092 43.0632 69.0034 43.1591 69.4593 43.1591C69.7619 43.1591 70.0389 43.1165 70.2903 43.0312C70.5417 42.946 70.7569 42.8182 70.9359 42.6477C71.1149 42.4773 71.2512 42.2685 71.345 42.0213L73.8635 42.1875C73.7356 42.7926 73.4735 43.321 73.0772 43.7727C72.6852 44.2202 72.1781 44.5696 71.5559 44.821C70.938 45.0682 70.2243 45.1918 69.4146 45.1918ZM75.698 48.6818V35.1818H78.3826V36.831H78.5041C78.6234 36.5668 78.796 36.2983 79.0218 36.0256C79.252 35.7486 79.5502 35.5185 79.9167 35.3352C80.2875 35.1477 80.7477 35.054 81.2974 35.054C82.0133 35.054 82.6738 35.2415 83.2789 35.6165C83.8841 35.9872 84.3677 36.5476 84.7299 37.2976C85.0922 38.0433 85.2733 38.9787 85.2733 40.1037C85.2733 41.1989 85.0964 42.1236 84.7427 42.8778C84.3933 43.6278 83.916 44.1967 83.3109 44.5845C82.7101 44.968 82.0368 45.1598 81.291 45.1598C80.7626 45.1598 80.313 45.0724 79.9423 44.8977C79.5758 44.723 79.2754 44.5036 79.041 44.2393C78.8066 43.9709 78.6277 43.7003 78.5041 43.4276H78.421V48.6818H75.698ZM78.3635 40.0909C78.3635 40.6747 78.4444 41.1839 78.6064 41.6186C78.7683 42.0533 79.0027 42.392 79.3095 42.6349C79.6163 42.8736 79.9892 42.9929 80.4281 42.9929C80.8713 42.9929 81.2463 42.8714 81.5531 42.6286C81.8599 42.3814 82.0922 42.0405 82.2498 41.6058C82.4118 41.1669 82.4927 40.6619 82.4927 40.0909C82.4927 39.5241 82.4139 39.0256 82.2562 38.5952C82.0985 38.1648 81.8663 37.8281 81.5595 37.5852C81.2527 37.3423 80.8755 37.2209 80.4281 37.2209C79.9849 37.2209 79.6099 37.3381 79.3031 37.5724C79.0005 37.8068 78.7683 38.1392 78.6064 38.5696C78.4444 39 78.3635 39.5071 78.3635 40.0909ZM89.8883 45.1854C89.2619 45.1854 88.7037 45.0767 88.2136 44.8594C87.7235 44.6378 87.3358 44.3118 87.0502 43.8814C86.769 43.4467 86.6284 42.9055 86.6284 42.2578C86.6284 41.7124 86.7285 41.2543 86.9288 40.8835C87.1291 40.5128 87.4018 40.2145 87.747 39.9886C88.0922 39.7628 88.4842 39.5923 88.9231 39.4773C89.3663 39.3622 89.8308 39.2812 90.3166 39.2344C90.8876 39.1747 91.3478 39.1193 91.6973 39.0682C92.0467 39.0128 92.3002 38.9318 92.4579 38.8253C92.6156 38.7187 92.6944 38.5611 92.6944 38.3523V38.3139C92.6944 37.9091 92.5666 37.5959 92.3109 37.3743C92.0595 37.1527 91.7015 37.0419 91.237 37.0419C90.747 37.0419 90.3571 37.1506 90.0673 37.3679C89.7775 37.581 89.5858 37.8494 89.492 38.1733L86.9735 37.9688C87.1014 37.3722 87.3528 36.8565 87.7278 36.4219C88.1028 35.983 88.5865 35.6463 89.1788 35.4119C89.7754 35.1733 90.4657 35.054 91.2498 35.054C91.7953 35.054 92.3173 35.1179 92.8159 35.2457C93.3187 35.3736 93.764 35.5717 94.1518 35.8402C94.5439 36.1087 94.8528 36.4538 95.0787 36.8757C95.3045 37.2933 95.4174 37.794 95.4174 38.3778V45H92.8351V43.6385H92.7583C92.6007 43.9453 92.3897 44.2159 92.1255 44.4503C91.8613 44.6804 91.5439 44.8615 91.1731 44.9936C90.8024 45.1214 90.3741 45.1854 89.8883 45.1854ZM90.6681 43.3061C91.0687 43.3061 91.4224 43.2273 91.7292 43.0696C92.036 42.9077 92.2768 42.6903 92.4515 42.4176C92.6262 42.1449 92.7136 41.8359 92.7136 41.4908V40.4489C92.6284 40.5043 92.5112 40.5554 92.362 40.6023C92.2172 40.6449 92.0531 40.6854 91.8699 40.7237C91.6866 40.7578 91.5034 40.7898 91.3201 40.8196C91.1369 40.8452 90.9707 40.8686 90.8216 40.8899C90.502 40.9368 90.2228 41.0114 89.9842 41.1136C89.7456 41.2159 89.5602 41.3544 89.4281 41.5291C89.296 41.6996 89.2299 41.9126 89.2299 42.1683C89.2299 42.5391 89.3642 42.8224 89.6326 43.0185C89.9054 43.2102 90.2505 43.3061 90.6681 43.3061ZM99.9973 42.1747L100.004 38.9084H100.4L103.545 35.1818H106.671L102.445 40.1165H101.8L99.9973 42.1747ZM97.53 45V31.9091H100.253V45H97.53ZM103.666 45L100.777 40.7237L102.593 38.7997L106.856 45H103.666ZM112.224 31.9091H115.637L119.242 40.7045H119.396L123.001 31.9091H126.414V45H123.729V36.4794H123.621L120.233 44.9361H118.405L115.017 36.4474H114.908V45H112.224V31.9091ZM133.118 45.1918C132.108 45.1918 131.238 44.9872 130.51 44.5781C129.785 44.1648 129.227 43.581 128.835 42.8267C128.443 42.0682 128.247 41.1712 128.247 40.1357C128.247 39.1257 128.443 38.2393 128.835 37.4766C129.227 36.7138 129.779 36.1193 130.491 35.6932C131.206 35.267 132.046 35.054 133.009 35.054C133.657 35.054 134.26 35.1584 134.818 35.3672C135.381 35.5717 135.871 35.8807 136.288 36.294C136.71 36.7074 137.038 37.2273 137.273 37.8537C137.507 38.4759 137.624 39.2045 137.624 40.0398V40.7876H129.334V39.1001H135.061C135.061 38.7081 134.976 38.3608 134.805 38.0582C134.635 37.7557 134.398 37.5192 134.096 37.3487C133.797 37.174 133.45 37.0866 133.054 37.0866C132.64 37.0866 132.274 37.1825 131.954 37.3743C131.639 37.5618 131.392 37.8153 131.213 38.1349C131.034 38.4503 130.942 38.8018 130.938 39.1896V40.794C130.938 41.2798 131.028 41.6996 131.206 42.0533C131.39 42.407 131.648 42.6797 131.98 42.8714C132.312 43.0632 132.706 43.1591 133.162 43.1591C133.465 43.1591 133.742 43.1165 133.993 43.0312C134.245 42.946 134.46 42.8182 134.639 42.6477C134.818 42.4773 134.954 42.2685 135.048 42.0213L137.567 42.1875C137.439 42.7926 137.177 43.321 136.78 43.7727C136.388 44.2202 135.881 44.5696 135.259 44.821C134.641 45.0682 133.927 45.1918 133.118 45.1918ZM142.124 39.3239V45H139.401V31.9091H142.047V36.9141H142.162C142.384 36.3345 142.742 35.8807 143.236 35.5526C143.731 35.2202 144.351 35.054 145.096 35.054C145.778 35.054 146.373 35.2031 146.88 35.5014C147.391 35.7955 147.787 36.2195 148.069 36.7734C148.354 37.3232 148.495 37.9815 148.491 38.7486V45H145.768V39.2344C145.772 38.6293 145.618 38.1584 145.307 37.8217C145.001 37.4851 144.57 37.3168 144.016 37.3168C143.645 37.3168 143.317 37.3956 143.032 37.5533C142.751 37.7109 142.529 37.9411 142.367 38.2436C142.209 38.5419 142.128 38.902 142.124 39.3239ZM150.634 45V35.1818H153.273V36.8949H153.376C153.555 36.2855 153.855 35.8253 154.277 35.5142C154.699 35.1989 155.185 35.0412 155.734 35.0412C155.871 35.0412 156.018 35.0497 156.175 35.0668C156.333 35.0838 156.472 35.1072 156.591 35.1371V37.5533C156.463 37.5149 156.286 37.4808 156.06 37.451C155.835 37.4212 155.628 37.4062 155.44 37.4062C155.04 37.4062 154.682 37.4936 154.366 37.6683C154.055 37.8388 153.808 38.0774 153.625 38.3842C153.446 38.6911 153.357 39.0447 153.357 39.4453V45H150.634ZM160.517 45.1854C159.891 45.1854 159.333 45.0767 158.843 44.8594C158.352 44.6378 157.965 44.3118 157.679 43.8814C157.398 43.4467 157.257 42.9055 157.257 42.2578C157.257 41.7124 157.357 41.2543 157.558 40.8835C157.758 40.5128 158.031 40.2145 158.376 39.9886C158.721 39.7628 159.113 39.5923 159.552 39.4773C159.995 39.3622 160.46 39.2812 160.945 39.2344C161.517 39.1747 161.977 39.1193 162.326 39.0682C162.676 39.0128 162.929 38.9318 163.087 38.8253C163.244 38.7187 163.323 38.5611 163.323 38.3523V38.3139C163.323 37.9091 163.195 37.5959 162.94 37.3743C162.688 37.1527 162.33 37.0419 161.866 37.0419C161.376 37.0419 160.986 37.1506 160.696 37.3679C160.406 37.581 160.215 37.8494 160.121 38.1733L157.602 37.9688C157.73 37.3722 157.982 36.8565 158.357 36.4219C158.732 35.983 159.215 35.6463 159.808 35.4119C160.404 35.1733 161.095 35.054 161.879 35.054C162.424 35.054 162.946 35.1179 163.445 35.2457C163.948 35.3736 164.393 35.5717 164.781 35.8402C165.173 36.1087 165.482 36.4538 165.708 36.8757C165.933 37.2933 166.046 37.794 166.046 38.3778V45H163.464V43.6385H163.387C163.23 43.9453 163.019 44.2159 162.754 44.4503C162.49 44.6804 162.173 44.8615 161.802 44.9936C161.431 45.1214 161.003 45.1854 160.517 45.1854ZM161.297 43.3061C161.698 43.3061 162.051 43.2273 162.358 43.0696C162.665 42.9077 162.906 42.6903 163.08 42.4176C163.255 42.1449 163.343 41.8359 163.343 41.4908V40.4489C163.257 40.5043 163.14 40.5554 162.991 40.6023C162.846 40.6449 162.682 40.6854 162.499 40.7237C162.316 40.7578 162.132 40.7898 161.949 40.8196C161.766 40.8452 161.6 40.8686 161.45 40.8899C161.131 40.9368 160.852 41.0114 160.613 41.1136C160.374 41.2159 160.189 41.3544 160.057 41.5291C159.925 41.6996 159.859 41.9126 159.859 42.1683C159.859 42.5391 159.993 42.8224 160.262 43.0185C160.534 43.2102 160.879 43.3061 161.297 43.3061Z" fill="#071E3F"/>
</g>
<defs>
<clipPath id="clip0_0_1">
<rect width="168" height="48" fill="white"/>
</clipPath>
</defs>
</svg>
