<svg width="166" height="48" viewBox="0 0 166 48" fill="none" xmlns="http://www.w3.org/2000/svg">
<rect width="166" height="48" fill="#F5F5F5"/>
<g clip-path="url(#clip0_0_1)">
<path d="M44.7784 44H40.1378V30.9091H44.8168C46.1335 30.9091 47.267 31.1712 48.2173 31.6953C49.1676 32.2152 49.8984 32.9631 50.4098 33.9389C50.9254 34.9148 51.1832 36.0824 51.1832 37.4418C51.1832 38.8054 50.9254 39.9773 50.4098 40.9574C49.8984 41.9375 49.1634 42.6896 48.2045 43.2138C47.25 43.7379 46.108 44 44.7784 44ZM42.9055 41.6286H44.6634C45.4815 41.6286 46.1697 41.4837 46.728 41.1939C47.2905 40.8999 47.7124 40.446 47.9936 39.8324C48.2791 39.2145 48.4219 38.4176 48.4219 37.4418C48.4219 36.4744 48.2791 35.6839 47.9936 35.0703C47.7124 34.4567 47.2926 34.005 46.7344 33.7152C46.1761 33.4254 45.4879 33.2805 44.6697 33.2805H42.9055V41.6286ZM57.6568 44.1918C56.6468 44.1918 55.7775 43.9872 55.0488 43.5781C54.3244 43.1648 53.7662 42.581 53.3741 41.8267C52.9821 41.0682 52.786 40.1712 52.786 39.1357C52.786 38.1257 52.9821 37.2393 53.3741 36.4766C53.7662 35.7138 54.318 35.1193 55.0297 34.6932C55.7456 34.267 56.585 34.054 57.5481 34.054C58.1958 34.054 58.7988 34.1584 59.3571 34.3672C59.9196 34.5717 60.4096 34.8807 60.8272 35.294C61.2491 35.7074 61.5772 36.2273 61.8116 36.8537C62.046 37.4759 62.1632 38.2045 62.1632 39.0398V39.7876H53.8727V38.1001H59.6C59.6 37.7081 59.5147 37.3608 59.3443 37.0582C59.1738 36.7557 58.9373 36.5192 58.6348 36.3487C58.3365 36.174 57.9892 36.0866 57.5929 36.0866C57.1795 36.0866 56.813 36.1825 56.4934 36.3743C56.1781 36.5618 55.9309 36.8153 55.752 37.1349C55.573 37.4503 55.4814 37.8018 55.4771 38.1896V39.794C55.4771 40.2798 55.5666 40.6996 55.7456 41.0533C55.9288 41.407 56.1866 41.6797 56.519 41.8714C56.8514 42.0632 57.2456 42.1591 57.7015 42.1591C58.0041 42.1591 58.2811 42.1165 58.5325 42.0312C58.7839 41.946 58.9991 41.8182 59.1781 41.6477C59.3571 41.4773 59.4934 41.2685 59.5872 41.0213L62.1056 41.1875C61.9778 41.7926 61.7157 42.321 61.3194 42.7727C60.9274 43.2202 60.4203 43.5696 59.7981 43.821C59.1802 44.0682 58.4664 44.1918 57.6568 44.1918ZM68.4146 44.1918C67.4047 44.1918 66.5353 43.9872 65.8066 43.5781C65.0822 43.1648 64.524 42.581 64.1319 41.8267C63.7399 41.0682 63.5439 40.1712 63.5439 39.1357C63.5439 38.1257 63.7399 37.2393 64.1319 36.4766C64.524 35.7138 65.0758 35.1193 65.7875 34.6932C66.5034 34.267 67.3429 34.054 68.3059 34.054C68.9537 34.054 69.5566 34.1584 70.1149 34.3672C70.6774 34.5717 71.1674 34.8807 71.5851 35.294C72.0069 35.7074 72.3351 36.2273 72.5694 36.8537C72.8038 37.4759 72.921 38.2045 72.921 39.0398V39.7876H64.6305V38.1001H70.3578C70.3578 37.7081 70.2726 37.3608 70.1021 37.0582C69.9316 36.7557 69.6951 36.5192 69.3926 36.3487C69.0943 36.174 68.747 36.0866 68.3507 36.0866C67.9373 36.0866 67.5708 36.1825 67.2512 36.3743C66.9359 36.5618 66.6887 36.8153 66.5098 37.1349C66.3308 37.4503 66.2392 37.8018 66.2349 38.1896V39.794C66.2349 40.2798 66.3244 40.6996 66.5034 41.0533C66.6866 41.407 66.9444 41.6797 67.2768 41.8714C67.6092 42.0632 68.0034 42.1591 68.4593 42.1591C68.7619 42.1591 69.0389 42.1165 69.2903 42.0312C69.5417 41.946 69.7569 41.8182 69.9359 41.6477C70.1149 41.4773 70.2512 41.2685 70.345 41.0213L72.8635 41.1875C72.7356 41.7926 72.4735 42.321 72.0772 42.7727C71.6852 43.2202 71.1781 43.5696 70.5559 43.821C69.938 44.0682 69.2243 44.1918 68.4146 44.1918ZM74.698 47.6818V34.1818H77.3826V35.831H77.5041C77.6234 35.5668 77.796 35.2983 78.0218 35.0256C78.252 34.7486 78.5502 34.5185 78.9167 34.3352C79.2875 34.1477 79.7477 34.054 80.2974 34.054C81.0133 34.054 81.6738 34.2415 82.2789 34.6165C82.8841 34.9872 83.3677 35.5476 83.7299 36.2976C84.0922 37.0433 84.2733 37.9787 84.2733 39.1037C84.2733 40.1989 84.0964 41.1236 83.7427 41.8778C83.3933 42.6278 82.916 43.1967 82.3109 43.5845C81.7101 43.968 81.0368 44.1598 80.291 44.1598C79.7626 44.1598 79.313 44.0724 78.9423 43.8977C78.5758 43.723 78.2754 43.5036 78.041 43.2393C77.8066 42.9709 77.6277 42.7003 77.5041 42.4276H77.421V47.6818H74.698ZM77.3635 39.0909C77.3635 39.6747 77.4444 40.1839 77.6064 40.6186C77.7683 41.0533 78.0027 41.392 78.3095 41.6349C78.6163 41.8736 78.9892 41.9929 79.4281 41.9929C79.8713 41.9929 80.2463 41.8714 80.5531 41.6286C80.8599 41.3814 81.0922 41.0405 81.2498 40.6058C81.4118 40.1669 81.4927 39.6619 81.4927 39.0909C81.4927 38.5241 81.4139 38.0256 81.2562 37.5952C81.0985 37.1648 80.8663 36.8281 80.5595 36.5852C80.2527 36.3423 79.8755 36.2209 79.4281 36.2209C78.9849 36.2209 78.6099 36.3381 78.3031 36.5724C78.0005 36.8068 77.7683 37.1392 77.6064 37.5696C77.4444 38 77.3635 38.5071 77.3635 39.0909ZM88.8883 44.1854C88.2619 44.1854 87.7037 44.0767 87.2136 43.8594C86.7235 43.6378 86.3358 43.3118 86.0502 42.8814C85.769 42.4467 85.6284 41.9055 85.6284 41.2578C85.6284 40.7124 85.7285 40.2543 85.9288 39.8835C86.1291 39.5128 86.4018 39.2145 86.747 38.9886C87.0922 38.7628 87.4842 38.5923 87.9231 38.4773C88.3663 38.3622 88.8308 38.2812 89.3166 38.2344C89.8876 38.1747 90.3478 38.1193 90.6973 38.0682C91.0467 38.0128 91.3002 37.9318 91.4579 37.8253C91.6156 37.7187 91.6944 37.5611 91.6944 37.3523V37.3139C91.6944 36.9091 91.5666 36.5959 91.3109 36.3743C91.0595 36.1527 90.7015 36.0419 90.237 36.0419C89.747 36.0419 89.3571 36.1506 89.0673 36.3679C88.7775 36.581 88.5858 36.8494 88.492 37.1733L85.9735 36.9688C86.1014 36.3722 86.3528 35.8565 86.7278 35.4219C87.1028 34.983 87.5865 34.6463 88.1788 34.4119C88.7754 34.1733 89.4657 34.054 90.2498 34.054C90.7953 34.054 91.3173 34.1179 91.8159 34.2457C92.3187 34.3736 92.764 34.5717 93.1518 34.8402C93.5439 35.1087 93.8528 35.4538 94.0787 35.8757C94.3045 36.2933 94.4174 36.794 94.4174 37.3778V44H91.8351V42.6385H91.7583C91.6007 42.9453 91.3897 43.2159 91.1255 43.4503C90.8613 43.6804 90.5439 43.8615 90.1731 43.9936C89.8024 44.1214 89.3741 44.1854 88.8883 44.1854ZM89.6681 42.3061C90.0687 42.3061 90.4224 42.2273 90.7292 42.0696C91.036 41.9077 91.2768 41.6903 91.4515 41.4176C91.6262 41.1449 91.7136 40.8359 91.7136 40.4908V39.4489C91.6284 39.5043 91.5112 39.5554 91.362 39.6023C91.2172 39.6449 91.0531 39.6854 90.8699 39.7237C90.6866 39.7578 90.5034 39.7898 90.3201 39.8196C90.1369 39.8452 89.9707 39.8686 89.8216 39.8899C89.502 39.9368 89.2228 40.0114 88.9842 40.1136C88.7456 40.2159 88.5602 40.3544 88.4281 40.5291C88.296 40.6996 88.2299 40.9126 88.2299 41.1683C88.2299 41.5391 88.3642 41.8224 88.6326 42.0185C88.9054 42.2102 89.2505 42.3061 89.6681 42.3061ZM98.9973 41.1747L99.0037 37.9084H99.4L102.545 34.1818H105.671L101.445 39.1165H100.8L98.9973 41.1747ZM96.53 44V30.9091H99.253V44H96.53ZM102.666 44L99.7772 39.7237L101.593 37.7997L105.856 44H102.666ZM111.224 30.9091H114.637L118.242 39.7045H118.396L122.001 30.9091H125.414V44H122.729V35.4794H122.621L119.233 43.9361H117.405L114.017 35.4474H113.908V44H111.224V30.9091ZM132.118 44.1918C131.108 44.1918 130.238 43.9872 129.51 43.5781C128.785 43.1648 128.227 42.581 127.835 41.8267C127.443 41.0682 127.247 40.1712 127.247 39.1357C127.247 38.1257 127.443 37.2393 127.835 36.4766C128.227 35.7138 128.779 35.1193 129.491 34.6932C130.206 34.267 131.046 34.054 132.009 34.054C132.657 34.054 133.26 34.1584 133.818 34.3672C134.381 34.5717 134.871 34.8807 135.288 35.294C135.71 35.7074 136.038 36.2273 136.273 36.8537C136.507 37.4759 136.624 38.2045 136.624 39.0398V39.7876H128.334V38.1001H134.061C134.061 37.7081 133.976 37.3608 133.805 37.0582C133.635 36.7557 133.398 36.5192 133.096 36.3487C132.797 36.174 132.45 36.0866 132.054 36.0866C131.64 36.0866 131.274 36.1825 130.954 36.3743C130.639 36.5618 130.392 36.8153 130.213 37.1349C130.034 37.4503 129.942 37.8018 129.938 38.1896V39.794C129.938 40.2798 130.028 40.6996 130.206 41.0533C130.39 41.407 130.648 41.6797 130.98 41.8714C131.312 42.0632 131.706 42.1591 132.162 42.1591C132.465 42.1591 132.742 42.1165 132.993 42.0312C133.245 41.946 133.46 41.8182 133.639 41.6477C133.818 41.4773 133.954 41.2685 134.048 41.0213L136.567 41.1875C136.439 41.7926 136.177 42.321 135.78 42.7727C135.388 43.2202 134.881 43.5696 134.259 43.821C133.641 44.0682 132.927 44.1918 132.118 44.1918ZM141.124 38.3239V44H138.401V30.9091H141.047V35.9141H141.162C141.384 35.3345 141.742 34.8807 142.236 34.5526C142.731 34.2202 143.351 34.054 144.096 34.054C144.778 34.054 145.373 34.2031 145.88 34.5014C146.391 34.7955 146.787 35.2195 147.069 35.7734C147.354 36.3232 147.495 36.9815 147.491 37.7486V44H144.768V38.2344C144.772 37.6293 144.618 37.1584 144.307 36.8217C144.001 36.4851 143.57 36.3168 143.016 36.3168C142.645 36.3168 142.317 36.3956 142.032 36.5533C141.751 36.7109 141.529 36.9411 141.367 37.2436C141.209 37.5419 141.128 37.902 141.124 38.3239ZM149.634 44V34.1818H152.273V35.8949H152.376C152.555 35.2855 152.855 34.8253 153.277 34.5142C153.699 34.1989 154.185 34.0412 154.734 34.0412C154.871 34.0412 155.018 34.0497 155.175 34.0668C155.333 34.0838 155.472 34.1072 155.591 34.1371V36.5533C155.463 36.5149 155.286 36.4808 155.06 36.451C154.835 36.4212 154.628 36.4062 154.44 36.4062C154.04 36.4062 153.682 36.4936 153.366 36.6683C153.055 36.8388 152.808 37.0774 152.625 37.3842C152.446 37.6911 152.357 38.0447 152.357 38.4453V44H149.634ZM159.517 44.1854C158.891 44.1854 158.333 44.0767 157.843 43.8594C157.352 43.6378 156.965 43.3118 156.679 42.8814C156.398 42.4467 156.257 41.9055 156.257 41.2578C156.257 40.7124 156.357 40.2543 156.558 39.8835C156.758 39.5128 157.031 39.2145 157.376 38.9886C157.721 38.7628 158.113 38.5923 158.552 38.4773C158.995 38.3622 159.46 38.2812 159.945 38.2344C160.517 38.1747 160.977 38.1193 161.326 38.0682C161.676 38.0128 161.929 37.9318 162.087 37.8253C162.244 37.7187 162.323 37.5611 162.323 37.3523V37.3139C162.323 36.9091 162.195 36.5959 161.94 36.3743C161.688 36.1527 161.33 36.0419 160.866 36.0419C160.376 36.0419 159.986 36.1506 159.696 36.3679C159.406 36.581 159.215 36.8494 159.121 37.1733L156.602 36.9688C156.73 36.3722 156.982 35.8565 157.357 35.4219C157.732 34.983 158.215 34.6463 158.808 34.4119C159.404 34.1733 160.095 34.054 160.879 34.054C161.424 34.054 161.946 34.1179 162.445 34.2457C162.948 34.3736 163.393 34.5717 163.781 34.8402C164.173 35.1087 164.482 35.4538 164.708 35.8757C164.933 36.2933 165.046 36.794 165.046 37.3778V44H162.464V42.6385H162.387C162.23 42.9453 162.019 43.2159 161.754 43.4503C161.49 43.6804 161.173 43.8615 160.802 43.9936C160.431 44.1214 160.003 44.1854 159.517 44.1854ZM160.297 42.3061C160.698 42.3061 161.051 42.2273 161.358 42.0696C161.665 41.9077 161.906 41.6903 162.08 41.4176C162.255 41.1449 162.343 40.8359 162.343 40.4908V39.4489C162.257 39.5043 162.14 39.5554 161.991 39.6023C161.846 39.6449 161.682 39.6854 161.499 39.7237C161.316 39.7578 161.132 39.7898 160.949 39.8196C160.766 39.8452 160.6 39.8686 160.45 39.8899C160.131 39.9368 159.852 40.0114 159.613 40.1136C159.374 40.2159 159.189 40.3544 159.057 40.5291C158.925 40.6996 158.859 40.9126 158.859 41.1683C158.859 41.5391 158.993 41.8224 159.262 42.0185C159.534 42.2102 159.879 42.3061 160.297 42.3061Z" fill="#FEFEFF"/>
<line x1="5" y1="3" x2="5" y2="36" stroke="#FCFDFF" stroke-width="4"/>
<line x1="11" y1="3" x2="11" y2="40" stroke="#FCFDFF" stroke-width="4"/>
<path d="M17 3L17 44" stroke="#FCFDFF" stroke-width="4"/>
<path d="M23 3L23 44" stroke="#FCFDFF" stroke-width="4"/>
<path d="M35 3V44" stroke="#FCFDFF" stroke-width="4"/>
<path d="M29 3L29 44" stroke="#FCFDFF" stroke-width="4"/>
<line x1="3" y1="4" x2="10" y2="4" stroke="#FCFDFF" stroke-width="2"/>
<line x1="15" y1="4" x2="21" y2="4" stroke="#FCFDFF" stroke-width="2"/>
<line x1="27" y1="4" x2="33" y2="4" stroke="#FCFDFF" stroke-width="2"/>
<line x1="21" y1="43" x2="27" y2="43" stroke="#FCFDFF" stroke-width="2"/>
<line x1="3" y1="39" x2="13" y2="39" stroke="#FCFDFF" stroke-width="2"/>
<path d="M3 43H15" stroke="#FCFDFF" stroke-width="2"/>
<line x1="3.98541" y1="43.5544" x2="4.01464" y2="39.4314" stroke="#FCFDFF" stroke-width="2"/>
</g>
<defs>
<clipPath id="clip0_0_1">
<rect width="166" height="48" fill="white"/>
</clipPath>
</defs>
</svg>
